<mxfile host="app.diagrams.net" agent="Mozilla/5.0 (Macintosh; Intel Mac OS X 10_15_7) AppleWebKit/537.36 (KHTML, like Gecko) Chrome/135.0.0.0 Safari/537.36" version="26.2.14">
  <diagram name="Page-1" id="z2zY1E_ODaXDAVeyAbMX">
    <mxGraphModel dx="1562" dy="1036" grid="1" gridSize="10" guides="1" tooltips="1" connect="1" arrows="1" fold="1" page="1" pageScale="1" pageWidth="850" pageHeight="1100" math="0" shadow="0">
      <root>
        <mxCell id="0" />
        <mxCell id="1" parent="0" />
        <mxCell id="4Ec3Hf5pO27jvRqdqAts-1" value="UI Apps (Angular)" style="swimlane;whiteSpace=wrap;html=1;" vertex="1" parent="1">
          <mxGeometry x="230" y="80" width="170" height="190" as="geometry">
            <mxRectangle x="260" y="120" width="80" height="30" as="alternateBounds" />
          </mxGeometry>
        </mxCell>
        <mxCell id="y1kEsC9lGzTJGFzX3HPY-1" value="Homestead App" style="rounded=0;whiteSpace=wrap;html=1;" parent="4Ec3Hf5pO27jvRqdqAts-1" vertex="1">
          <mxGeometry x="25" y="70" width="120" height="60" as="geometry" />
        </mxCell>
        <mxCell id="4Ec3Hf5pO27jvRqdqAts-2" value="Back-end App (Gradle)" style="swimlane;whiteSpace=wrap;html=1;" vertex="1" parent="1">
          <mxGeometry x="235" y="320" width="365" height="220" as="geometry" />
        </mxCell>
        <mxCell id="4Ec3Hf5pO27jvRqdqAts-8" value="Spring Gateway" style="rounded=0;whiteSpace=wrap;html=1;" vertex="1" parent="4Ec3Hf5pO27jvRqdqAts-2">
          <mxGeometry x="95" y="40" width="185" height="70" as="geometry" />
        </mxCell>
        <mxCell id="4Ec3Hf5pO27jvRqdqAts-9" value="Auth Service" style="rounded=0;whiteSpace=wrap;html=1;" vertex="1" parent="4Ec3Hf5pO27jvRqdqAts-2">
          <mxGeometry x="35" y="140" width="120" height="60" as="geometry" />
        </mxCell>
        <mxCell id="4Ec3Hf5pO27jvRqdqAts-10" value="Other Serivces" style="rounded=0;whiteSpace=wrap;html=1;" vertex="1" parent="4Ec3Hf5pO27jvRqdqAts-2">
          <mxGeometry x="235" y="140" width="120" height="60" as="geometry" />
        </mxCell>
        <mxCell id="4Ec3Hf5pO27jvRqdqAts-5" value="UI Libraries (Angular via NX)" style="swimlane;whiteSpace=wrap;html=1;" vertex="1" parent="1">
          <mxGeometry x="410" y="80" width="190" height="190" as="geometry" />
        </mxCell>
        <mxCell id="4Ec3Hf5pO27jvRqdqAts-6" value="Shared" style="rounded=0;whiteSpace=wrap;html=1;" vertex="1" parent="4Ec3Hf5pO27jvRqdqAts-5">
          <mxGeometry x="50" y="70" width="110" height="60" as="geometry" />
        </mxCell>
        <mxCell id="4Ec3Hf5pO27jvRqdqAts-7" style="edgeStyle=orthogonalEdgeStyle;rounded=0;orthogonalLoop=1;jettySize=auto;html=1;exitX=0;exitY=0.5;exitDx=0;exitDy=0;" edge="1" parent="1" source="4Ec3Hf5pO27jvRqdqAts-6" target="y1kEsC9lGzTJGFzX3HPY-1">
          <mxGeometry relative="1" as="geometry" />
        </mxCell>
      </root>
    </mxGraphModel>
  </diagram>
</mxfile>
